<svg width="48" height="48" viewBox="0 0 48 48" fill="none" xmlns="http://www.w3.org/2000/svg"><g clip-path="url(#a)"><path fill="#fff" d="M0 0h48v48H0z"/><path d="M21 36a3 3 0 1 1 6 0v3.5h-6z" fill="#FFDECB"/><path d="M34 9H14a1 1 0 0 0-1 1v28a1 1 0 0 0 1 1h7v-2.5a3 3 0 1 1 6 0V39h7a1 1 0 0 0 1-1V10a1 1 0 0 0-1-1" fill="#fff"/><path d="M34 10H14a1 1 0 0 0-1 1v27a1 1 0 0 0 1 1h7v-2.5a3 3 0 1 1 6 0V39h7a1 1 0 0 0 1-1V11a1 1 0 0 0-1-1Z" stroke="#362929"/><path d="M16.5 16.5a1.5 1.5 0 0 1 3 0V20h-3zm6 0a1.5 1.5 0 0 1 3 0V20h-3zm6 0a1.5 1.5 0 0 1 3 0V20h-3zm-12 5.5h3v3h-3zm6 0h3v3h-3zm6 0h3v3h-3z" fill="#FFA284"/><rect x="11" y="28" width="26" height="3" rx="1" fill="#FFA284" stroke="#362929"/><rect x="11" y="10" width="26" height="3" rx="1" fill="#FFA284" stroke="#362929"/></g><defs><clipPath id="a"><path fill="#fff" d="M0 0h48v48H0z"/></clipPath></defs></svg>