<svg width="48" height="48" viewBox="0 0 48 48" fill="none" xmlns="http://www.w3.org/2000/svg"><path fill="#fff" d="M0 0h48v48H0z"/><circle cx="24" cy="28" r="3" fill="#fff" stroke="#362929"/><path d="M21 28a3 3 0 1 1 6 0 1.5 1.5 0 0 0-3 0 1.5 1.5 0 0 1-3 0Z" fill="#FFA284" stroke="#362929" stroke-linejoin="round"/><circle cx="24" cy="24" r="14" fill="#fff"/><path d="M24 9.5c8.008 0 14.5 6.492 14.5 14.5S32.008 38.5 24 38.5 9.5 32.008 9.5 24 15.992 9.5 24 9.5m0 1c-7.456 0-13.5 6.044-13.5 13.5S16.544 37.5 24 37.5 37.5 31.456 37.5 24 31.456 10.5 24 10.5" fill="#362929"/><clipPath id="a"><circle cx="24" cy="24" r="12.5"/></clipPath><g clip-path="url(#a)"><circle cx="22" cy="23" r="12" fill="#fff"/><path d="M27.49 19.906a4.7 4.7 0 0 1-.726-.652c-.73-.773-1.734-1.144-2.797-1.18-1.434-.047-3.058.284-3.787 1.521a3.2 3.2 0 0 0-.342.893c-.178.728-.297.983-.662 1.625-.495.874-1.464 1.206-2.255 1.593-.864.423-1.518 1.393-1.814 2.405-.336 1.146.16 2.421.951 3.271 1.159 1.244 2.774 1.371 3.973 2.406.502.434.905.986 1.391 1.442s1.101.822 1.744.764c1.415-.127 2.016-1.852 3.48-1.946.603-.038 1.22.046 1.804-.118.716-.2 1.307-.758 1.726-1.41.419-.654.686-1.401.95-2.142.415-1.169.838-2.366.872-3.617.052-1.924-.877-3.11-2.444-3.856-.691-.33-1.428-.56-2.063-.999" fill="#FFDECB"/><path fill="#FFDECB" stroke="#362929" d="m38.393 27-1 1.732-10.392-6L28 21z"/><path fill="#FFDECB" stroke="#362929" d="m37.393 28.732-1 1.732-10.392-6 1-1.732z"/><path fill="#FFDECB" stroke="#362929" d="m36.393 30.464-1 1.732-10.392-6 1-1.732z"/><path fill="#FFDECB" stroke="#362929" d="m35.393 32.196-1 1.732-10.392-6 1-1.732zm-12.501-13.33-1 1.732-10.392-6 1-1.732zm-1 1.732-1 1.732-10.392-6 1-1.732zm-1 1.732-1 1.732-10.392-6 1-1.732zm-1 1.732-1 1.732-10.392-6 1-1.732z"/><path d="M33.87 23.976c-1.86 2.863-4.502 3.012-5.591 2.729-4.899-1.274-8.344-4.786-9.574-8.767a10 10 0 0 1-.282-1.146c-.51-2.749 4.072-3.974 6.119-5.879 3.22-2.997 5.928.671 5.503 2.304s1.521 3.534 2.863 4.406 3.289 2.773.963 6.353Z" fill="#FFA284" stroke="#362929"/><circle cx="24" cy="24" r="12" stroke="#362929"/><path d="M27.49 17.906a4.7 4.7 0 0 1-.726-.652c-.73-.773-1.734-1.144-2.797-1.18-1.434-.047-3.058.284-3.787 1.521a3.2 3.2 0 0 0-.342.893c-.178.728-.297.983-.662 1.625-.495.874-1.464 1.206-2.255 1.593-.864.423-1.518 1.393-1.814 2.405-.336 1.146.16 2.421.951 3.271 1.159 1.244 2.774 1.371 3.973 2.406.502.434.905.986 1.391 1.442s1.101.822 1.744.764c1.415-.127 2.016-1.852 3.48-1.945.603-.039 1.22.045 1.804-.119.716-.2 1.307-.758 1.726-1.41.419-.654.686-1.401.95-2.142.415-1.169.838-2.366.872-3.617.052-1.924-.877-3.11-2.444-3.856-.691-.33-1.428-.56-2.063-.999Z" fill="#fff" stroke="#362929"/><path d="M18.094 29.606c-.78.781-1.889.94-2.475.353-.585-.585-.427-1.693.354-2.474s1.889-.94 2.475-.354.427 1.694-.354 2.475Z" stroke="#FFA284"/></g><circle cx="24" cy="24" r="3" fill="#FFDECB"/><path d="M26.901 23.25c.062.24.099.49.099.75a3 3 0 1 1-5.902-.75 2.998 2.998 0 0 0 5.804 0" fill="#FFA284"/><circle cx="24" cy="24" r="3" stroke="#362929"/><path d="M21 31c0 1.105-.672 2-1.5 2s-1.5-.895-1.5-2 .672-2 1.5-2 1.5.896 1.5 2Z" stroke="#FFA284"/></svg>