<svg width="48" height="48" viewBox="0 0 48 48" fill="none" xmlns="http://www.w3.org/2000/svg"><path fill="#fff" d="M0 0h48v48H0z"/><path d="M11.5 16H18a1 1 0 0 1 1 1v8.056a.944.944 0 0 1-.944.944 7.556 7.556 0 0 1-7.556-7.556V17a1 1 0 0 1 1-1Zm25 0H30a1 1 0 0 0-1 1v8.056c0 .521.423.944.944.944a7.556 7.556 0 0 0 7.556-7.556V17a1 1 0 0 0-1-1Z" stroke="#362929" stroke-linecap="round"/><path d="M30 34H18l-1 5h14zm-7.364-5c0 2.213-1.624 5-3.636 5h10c-2.012 0-3.636-2.787-3.636-5z" fill="#FFDECB"/><path d="M25.363 29c0 2.213 1.625 5 3.637 5h-4.037c-.966-1.011-1.6-2.618-1.6-4h-.828a5.3 5.3 0 0 0 .102-1zm-6.326 5H19l.038-.002zm10.873.022h-2.363l.792 5.478h2.363z" fill="#FFA284"/><path d="M33 21.704V14H15v7.704C15 26.29 19.024 30 24 30c4.423 0 9-3.145 9-8.296" fill="#FFDECB"/><path d="M33 13.5a.5.5 0 0 1 .5.5v7.704c0 5.504-4.885 8.796-9.5 8.796a10.3 10.3 0 0 1-2.019-.202c3.931-.788 7.519-3.878 7.519-8.594V14a.5.5 0 0 0-.5-.5z" fill="#FFA284"/><rect x="13" y="10" width="22" height="4" rx="1" fill="#FFDECB"/><path d="M31.5 10.5H34a.5.5 0 0 1 .5.5v2a.5.5 0 0 1-.5.5h-2.5z" fill="#FFA284"/><path d="M14 39h20" stroke="#362929" stroke-linecap="round" stroke-linejoin="round"/><path d="M30 34H18l-1 5h14zm-7.364-4c0 2.213-1.624 4-3.636 4h10c-2.012 0-3.636-1.787-3.636-4zM33 21.704V14H15v7.704C15 26.29 19.024 30 24 30c4.423 0 9-3.145 9-8.296Z" stroke="#362929" stroke-linejoin="round"/><rect x="13" y="10" width="22" height="4" rx="1" stroke="#362929"/><path d="M24.735 17a.5.5 0 0 1 .5.5v7.07a.5.5 0 0 1-.5.5H23.26a.5.5 0 0 1-.5-.5v-4.795l-.894.56a.5.5 0 0 1-.766-.423v-1.299a.5.5 0 0 1 .231-.422l1.749-1.113.062-.033a.5.5 0 0 1 .206-.045z" fill="#fff" stroke="#362929" stroke-linejoin="round"/><path d="M41.156 40.256a2.115 2.115 0 0 1-2.112-2.112A.146.146 0 0 0 38.9 38a.14.14 0 0 0-.144.144 2.115 2.115 0 0 1-2.112 2.112.146.146 0 0 0-.144.144c0 .084.06.144.144.144 1.164 0 2.112.948 2.112 2.112 0 .072.06.144.144.144s.144-.06.144-.144c0-1.164.948-2.112 2.112-2.112.072 0 .144-.06.144-.144a.14.14 0 0 0-.144-.144m-1.375-35a2.115 2.115 0 0 1-2.112-2.112.146.146 0 0 0-.144-.144.14.14 0 0 0-.144.144 2.115 2.115 0 0 1-2.112 2.112.146.146 0 0 0-.144.144c0 .084.06.144.144.144 1.164 0 2.112.948 2.112 2.112 0 .072.06.144.144.144s.144-.06.144-.144c0-1.164.948-2.112 2.112-2.112.072 0 .144-.06.144-.144a.14.14 0 0 0-.144-.144m-30.625 28a2.115 2.115 0 0 1-2.112-2.112A.146.146 0 0 0 6.9 31a.14.14 0 0 0-.144.144 2.115 2.115 0 0 1-2.112 2.112.146.146 0 0 0-.144.144c0 .084.06.144.144.144 1.164 0 2.112.948 2.112 2.112 0 .072.06.144.144.144s.144-.06.144-.144c0-1.164.948-2.112 2.112-2.112.072 0 .144-.06.144-.144a.14.14 0 0 0-.144-.144" fill="#FFA284"/></svg>