<svg width="48" height="48" viewBox="0 0 48 48" fill="none" xmlns="http://www.w3.org/2000/svg"><path fill="#fff" d="M0 0h48v48H0z"/><path d="M20 10c5.523 0 10 4.34 10 9.692 0 2.107-.622 4.167-1.786 5.923l-7.381 11.128a1 1 0 0 1-1.666 0l-7.38-11.128A10.7 10.7 0 0 1 10 19.692C10 14.34 14.477 10 20 10m0 5a5 5 0 1 0 0 10 5 5 0 0 0 0-10" fill="#FFA284"/><path d="M30 19.692h.5zm-1.786 5.923.417.277zm-7.381 11.128-.417-.276zm-1.666 0 .417-.276zm-7.38-11.128-.418.277zM10 19.692h-.5zM20 10v.5c5.262 0 9.5 4.13 9.5 9.192h1C30.5 14.05 25.784 9.5 20 9.5zm10 9.692h-.5c0 2.009-.593 3.973-1.703 5.647l.417.276.417.277a11.2 11.2 0 0 0 1.869-6.2zm-1.786 5.923-.417-.276-7.38 11.128.416.276.417.276 7.38-11.127zm-7.381 11.128-.417-.276a.5.5 0 0 1-.832 0l-.417.276-.417.276a1.5 1.5 0 0 0 2.5 0zm-1.666 0 .417-.276-7.381-11.128-.417.276-.416.277 7.38 11.128zm-7.38-11.128.416-.276a10.2 10.2 0 0 1-1.703-5.647h-1c0 2.206.65 4.362 1.87 6.2zM10 19.692h.5c0-5.062 4.239-9.192 9.5-9.192v-1c-5.784 0-10.5 4.549-10.5 10.192zM20 15v-.5a5.5 5.5 0 0 0-5.5 5.5h1a4.5 4.5 0 0 1 4.5-4.5zm-5 5h-.5a5.5 5.5 0 0 0 5.5 5.5v-1a4.5 4.5 0 0 1-4.5-4.5zm5 5v.5a5.5 5.5 0 0 0 5.5-5.5h-1a4.5 4.5 0 0 1-4.5 4.5zm5-5h.5a5.5 5.5 0 0 0-5.5-5.5v1a4.5 4.5 0 0 1 4.5 4.5z" fill="#362929"/><path fill="#fff" stroke="#362929" d="M32 33.414 33.414 32l1.414 1.414-1.414 1.414z"/><rect x="33" y="35.121" width="3" height="6" rx="1" transform="rotate(-45 33 35.121)" fill="#FFA284" stroke="#362929"/><mask id="a" style="mask-type:alpha" maskUnits="userSpaceOnUse" x="25" y="24" width="8" height="8"><circle cx="29" cy="28" r="4" fill="#FFFCFB"/></mask><g mask="url(#a)"><circle cx="29" cy="28" r="4" fill="#FFFCFB"/><path d="M20 12c5.523 0 10 4.34 10 9.692 0 2.107-.621 4.168-1.786 5.924l-7.38 11.128a1 1 0 0 1-1.667 0l-7.381-11.128A10.7 10.7 0 0 1 10 21.692C10 16.34 14.477 12 20 12" fill="#FFA284"/></g><path d="M29 22a6 6 0 1 1 0 12 6 6 0 0 1 0-12m0 2a4 4 0 1 0 0 8 4 4 0 0 0 0-8" fill="#FFDECB"/><circle cx="29" cy="28" r="6" stroke="#362929"/><circle cx="29" cy="28" r="4" stroke="#362929"/></svg>