<svg width="48" height="48" viewBox="0 0 48 48" fill="none" xmlns="http://www.w3.org/2000/svg"><path fill="#fff" d="M0 0h48v48H0z"/><path d="M10.503 17.33 15.7 10.4a1 1 0 0 1 .8-.4h14.046a1 1 0 0 1 .753.341l6.106 6.979a1 1 0 0 1-.022 1.34L24.731 32.218a1 1 0 0 1-1.462 0L10.572 18.612a1 1 0 0 1-.07-1.282" fill="#fff"/><path d="M30 18h8L24 33zm-12 0h-8l14 15z" fill="#FFA284"/><path d="m18 18-2-8-6 8zm13-8-1 8h8zm-7 0-6 8h12z" fill="#FFDECB"/><path d="M10.503 17.33 15.7 10.4a1 1 0 0 1 .8-.4h14.046a1 1 0 0 1 .753.341l6.106 6.979a1 1 0 0 1-.022 1.34L24.731 32.218a1 1 0 0 1-1.462 0L10.572 18.612a1 1 0 0 1-.07-1.282Z" stroke="#362929"/><path d="M9.855 33.496A1 1 0 0 1 10.723 32H16a1 1 0 0 1 1 1v5a1 1 0 0 1-1 1h-5.277a1 1 0 0 1-.868-1.496l.861-1.508a1 1 0 0 0 0-.992zm28.29 0A1 1 0 0 0 37.277 32H32a1 1 0 0 0-1 1v5a1 1 0 0 0 1 1h5.277a1 1 0 0 0 .868-1.496l-.862-1.508a1 1 0 0 1 0-.992z" fill="#FFDECB" stroke="#362929"/><path d="M13 31a1 1 0 0 1 1-1h20a1 1 0 0 1 1 1v5a1 1 0 0 1-1 1H14a1 1 0 0 1-1-1z" fill="#FFDECB" stroke="#362929"/><path d="M18.287 35.592q-.594 0-1.092-.276a2.1 2.1 0 0 1-.786-.768 2.2 2.2 0 0 1-.288-1.116q0-.618.288-1.11.294-.492.786-.768a2.2 2.2 0 0 1 1.092-.276q.594 0 1.086.276a2 2 0 0 1 .78.768q.288.492.288 1.11t-.288 1.116a2.05 2.05 0 0 1-.78.768q-.492.276-1.086.276m0-.936q.504 0 .804-.336.306-.336.306-.888 0-.558-.306-.888-.3-.336-.804-.336-.51 0-.816.33-.3.33-.3.894 0 .558.3.894.306.33.816.33m6.493.894h-1.026l-1.716-2.598v2.598h-1.026v-4.212h1.026l1.716 2.61v-2.61h1.026zm1.77-.792h1.344v.792h-2.37v-4.212h1.026zm5.445-3.42-1.458 2.82v1.392h-1.026v-1.392l-1.458-2.82h1.164l.816 1.764.81-1.764z" fill="#362929"/></svg>