<svg width="25" height="24" viewBox="0 0 25 24" fill="none" xmlns="http://www.w3.org/2000/svg">
<path d="M2.625 11.5579C2.625 11.2858 2.73585 11.0255 2.93199 10.8369L11.432 2.66617C11.8191 2.29407 12.4309 2.29407 12.818 2.66616L21.318 10.8369C21.5141 11.0255 21.625 11.2858 21.625 11.5579L21.625 21.5C21.625 21.7761 21.4011 22 21.125 22L15.7901 22C15.5139 22 15.2901 21.7761 15.2901 21.5L15.2901 17.75C15.2901 16.9216 14.6185 16.25 13.7901 16.25H10.7995C9.97107 16.25 9.29949 16.9216 9.29949 17.75L9.29949 21.5C9.29949 21.7761 9.07564 22 8.79949 22L3.125 22C2.84886 22 2.625 21.7761 2.625 21.5L2.625 11.5579Z" fill="#222222" stroke="#222222" stroke-width="1.3" stroke-linejoin="round"/>
</svg>
