<svg width="48" height="48" viewBox="0 0 48 48" fill="none" xmlns="http://www.w3.org/2000/svg"><path fill="#fff" d="M0 0h48v48H0z"/><path d="M11.5 15.5H18a1 1 0 0 1 1 1v7.056a.944.944 0 0 1-.944.944 7.556 7.556 0 0 1-7.556-7.556V16.5a1 1 0 0 1 1-1Zm25 0H30a1 1 0 0 0-1 1v7.056c0 .521.423.944.944.944a7.556 7.556 0 0 0 7.556-7.556V16.5a1 1 0 0 0-1-1Z" stroke="#362929" stroke-linecap="round"/><path fill="#fff" stroke="#362929" d="M22 28h4v2h-4z"/><path d="M15 14h18v5a9 9 0 1 1-18 0z" fill="#fff"/><path d="M22.5 27.876q.733.123 1.5.124a9 9 0 0 0 9-9v-5h-3v5c0 4.46-3.243 8.161-7.5 8.876" fill="#FFDECB"/><path d="M33 14H15v5a9 9 0 1 0 18 0z" stroke="#362929"/><rect x="13" y="10" width="22" height="4" rx="1" fill="#fff" stroke="#362929"/><path d="M31.5 10.5H34a.5.5 0 0 1 .5.5v2a.5.5 0 0 1-.5.5h-2.5z" fill="#FFDECB"/><path d="M27 10h4v6l-2-.75-2 .75z" fill="#FFA284"/><path d="M27 10v-.5h-.5v.5zm4 0h.5v-.5H31zm0 6-.176.468A.5.5 0 0 0 31.5 16zm-4 0h-.5a.5.5 0 0 0 .676.468zm2-.75.176-.468a.5.5 0 0 0-.352 0zM27 10v.5h4v-1h-4zm4 0h-.5v6h1v-6zm-4 6h.5v-6h-1v6zm4 0 .176-.468-2-.75-.176.468-.176.468 2 .75zm-2-.75-.176-.468-2 .75L27 16l.176.468 2-.75z" fill="#362929"/><path d="M9.855 33.496A1 1 0 0 1 10.723 32H16a1 1 0 0 1 1 1v5a1 1 0 0 1-1 1h-5.277a1 1 0 0 1-.868-1.496l.861-1.508a1 1 0 0 0 0-.992zm28.29 0A1 1 0 0 0 37.277 32H32a1 1 0 0 0-1 1v5a1 1 0 0 0 1 1h5.277a1 1 0 0 0 .868-1.496l-.862-1.508a1 1 0 0 1 0-.992z" fill="#FFDECB" stroke="#362929"/><path d="M13 31a1 1 0 0 1 1-1h20a1 1 0 0 1 1 1v5a1 1 0 0 1-1 1H14a1 1 0 0 1-1-1z" fill="#FFDECB" stroke="#362929"/><path d="M21.695 31.288V35.5h-1.026v-1.734h-1.596V35.5h-1.026v-4.212h1.026v1.65h1.596v-1.65zm2.732 4.254q-.593 0-1.091-.276a2.1 2.1 0 0 1-.787-.768 2.2 2.2 0 0 1-.287-1.116q0-.618.287-1.11.295-.492.787-.768a2.2 2.2 0 0 1 1.092-.276q.594 0 1.085.276a2 2 0 0 1 .78.768q.288.492.288 1.11t-.287 1.116a2.05 2.05 0 0 1-.78.768q-.492.276-1.087.276m0-.936q.505 0 .805-.336.306-.336.306-.888 0-.558-.306-.888-.3-.336-.805-.336-.51 0-.816.33-.3.33-.3.894 0 .558.3.894.306.33.816.33m5.755-3.318v.822h-1.116v3.39H28.04v-3.39h-1.116v-.822z" fill="#362929"/></svg>