<svg width="48" height="48" viewBox="0 0 48 48" fill="none" xmlns="http://www.w3.org/2000/svg">
<rect width="48" height="48" fill="white"/>
<circle cx="24" cy="24" r="15" fill="white" stroke="#362929"/>
<clipPath id="clip0_7377_14871"><circle cx="24" cy="24" r="13.5" /></clipPath>
<g clip-path="url(#clip0_7377_14871)">
<rect x="15" y="37" width="6" height="26" transform="rotate(-180 15 37)" stroke="#FFDECB"/>
<rect x="21" y="37" width="6" height="26" transform="rotate(-180 21 37)" stroke="#FFDECB"/>
<rect x="27" y="37" width="6" height="26" transform="rotate(-180 27 37)" stroke="#FFDECB"/>
<rect x="33" y="37" width="6" height="26" transform="rotate(-180 33 37)" stroke="#FFDECB"/>
<rect x="39" y="37" width="6" height="26" transform="rotate(-180 39 37)" stroke="#FFDECB"/>
<rect x="37" y="33" width="6" height="26" transform="rotate(90 37 33)" stroke="#FFDECB"/>
<rect x="37" y="27" width="6" height="26" transform="rotate(90 37 27)" stroke="#FFDECB"/>
<rect x="37" y="21" width="6" height="26" transform="rotate(90 37 21)" stroke="#FFDECB"/>
<rect x="37" y="15" width="6" height="26" transform="rotate(90 37 15)" stroke="#FFDECB"/>
<rect x="37" y="9" width="6" height="26" transform="rotate(90 37 9)" stroke="#FFDECB"/>
<circle cx="24" cy="24" r="13" stroke="#FFDECB"/>
<path d="M34.0003 21.3333L33.8333 24.6665C33.7501 27.0042 32.3778 28.64 30.4224 29.915C28.2173 31.3601 25.5131 31.8702 22.9336 32.1677C19.9381 32.5077 16.6513 32.5502 14.8208 30.0001C14.3631 29.405 14.0719 28.64 14.0303 27.8324V24.3472H16.1521V24.4322C17.317 23.8372 18.7732 23.5397 19.8965 22.9021C21.519 22.0096 21.7687 19.6719 25.2634 18.3969C27.0524 17.7593 29.091 17.8018 30.7552 18.6519C31.5041 19.0344 32.2113 19.6294 32.7522 20.3095L34.0003 21.2908V21.3333Z" fill="#FFA284" stroke="#362929"/>
<path d="M14.5285 22.8488C13.114 25.0589 14.5701 28.5016 18.5225 29.2242C21.0188 29.6917 27.2178 29.0117 30.4213 26.929C35.2058 23.7838 35.0394 17.9185 30.7542 15.7084C29.0484 14.8583 27.0098 14.7733 25.2624 15.4534C21.726 16.7284 21.518 19.0236 19.8955 19.9586C18.1481 20.9362 15.735 21.0212 14.5285 22.8488Z" fill="white" stroke="#362929"/>
<path d="M20.3949 27.9069C19.8124 27.9069 19.3132 27.8644 18.8139 27.7794C17.6074 27.5669 16.5673 26.9719 15.9848 26.1643C15.444 25.3993 15.3192 24.2942 15.7768 23.6142C16.6089 22.3391 18.7723 22.2116 20.6029 21.1915C22.6415 20.0439 22.7247 17.9188 25.7619 16.7713C29.007 15.5812 32.2105 17.4513 32.5434 20.3415C32.8346 22.5091 31.2952 24.5917 29.6727 25.6543C27.1348 27.3544 22.5167 27.9069 20.3949 27.9069Z" fill="#FFA284"/>
<path d="M27.6748 18.0468C29.0075 18.0468 30.0879 18.884 30.0879 19.9169C30.0879 20.9497 29.0075 21.787 27.6748 21.787C26.3421 21.787 25.2617 20.9497 25.2617 19.9169C25.2617 18.884 26.3421 18.0468 27.6748 18.0468ZM27.6748 18.8534C26.9166 18.8534 26.3018 19.3291 26.3018 19.9159C26.3018 20.5027 26.9166 20.9783 27.6748 20.9784C28.4331 20.9784 29.0479 20.5027 29.0479 19.9159C29.0478 19.3291 28.4331 18.8534 27.6748 18.8534Z" fill="white"/>
</g>
</svg>
