<svg width="48" height="48" viewBox="0 0 48 48" fill="none" xmlns="http://www.w3.org/2000/svg"><path fill="#fff" d="M0 0h48v48H0z"/><path d="m24 39-.413.281h.826zm-9.052-13.293-.413.282zM35 19.385h.5C35.5 13.346 30.324 8.5 24 8.5v1c5.826 0 10.5 4.452 10.5 9.885zm-1.948 6.322-.414-.281-9.051 13.293L24 39l.413.281 9.052-13.292zM24 39l.413-.281-9.051-13.293-.414.281-.413.282 9.052 13.292zm0-30v-.5c-6.324 0-11.5 4.847-11.5 10.885h1C13.5 13.952 18.174 9.5 24 9.5zm-9.052 16.707.414-.281a10.73 10.73 0 0 1-1.862-6.041h-1c0 2.355.71 4.657 2.035 6.604zM35 19.385h-.5c0 2.155-.649 4.26-1.862 6.04l.414.282.413.282a11.73 11.73 0 0 0 2.035-6.604z" fill="#362929"/><path fill-rule="evenodd" clip-rule="evenodd" d="M25 18.233c-1.1-1.313-2.937-1.72-4.315-.517a3.396 3.396 0 0 0-.49 4.636c.9 1.182 3.622 3.676 4.515 4.483.1.09.15.136.208.153.05.016.106.016.157 0 .058-.017.108-.062.208-.153.892-.807 3.615-3.3 4.514-4.483 1.082-1.423.912-3.446-.49-4.636-1.401-1.19-3.207-.796-4.307.517" fill="#FFDECB" stroke="#FFDECB" stroke-linecap="round" stroke-linejoin="round"/><path fill-rule="evenodd" clip-rule="evenodd" d="M24 17.233c-1.1-1.313-2.937-1.72-4.315-.517a3.396 3.396 0 0 0-.49 4.636c.9 1.182 3.622 3.676 4.515 4.483.1.09.15.136.208.153.05.016.106.016.157 0 .058-.017.108-.062.208-.153.892-.807 3.615-3.3 4.514-4.483 1.082-1.423.912-3.446-.49-4.636-1.401-1.19-3.207-.796-4.307.517" fill="#FFA284" stroke="#362929" stroke-linecap="round" stroke-linejoin="round"/></svg>