<svg width="48" height="48" viewBox="0 0 48 48" fill="none" xmlns="http://www.w3.org/2000/svg"><path fill="#fff" d="M0 0h48v48H0z"/><path d="M14.548 16.875c1.458-1.475 1.944-2.058 1.944-3.687S14.548 9.5 14.548 9.5s-1.943 2.058-1.943 3.688c0 1.629.486 2.212 1.943 3.687m0 11.063c-1.555-1.383-2.17-1.844-3.887-1.844s-3.887 1.844-3.887 1.844 2.17 1.844 3.887 1.844 2.332-.461 3.887-1.844m3.367 5.532c-2.075-.46-2.85-.569-4.338.246s-2.395 3.44-2.395 3.44 2.851.568 4.338-.246c1.488-.815 1.777-1.506 2.395-3.44m15.537-16.595c-1.458-1.475-1.944-2.058-1.944-3.687S33.452 9.5 33.452 9.5s1.943 2.058 1.943 3.688c0 1.629-.486 2.212-1.943 3.687m1.816 5.531c.617-1.935.907-2.626 2.394-3.44S42 18.719 42 18.719s-.907 2.626-2.394 3.44-2.263.707-4.338.247m-1.816 5.532c1.555-1.383 2.17-1.844 3.887-1.844s3.887 1.844 3.887 1.844-2.17 1.844-3.887 1.844-2.332-.461-3.887-1.844m-3.367 5.532c2.075-.46 2.85-.569 4.338.246s2.395 3.44 2.395 3.44-2.851.568-4.338-.246c-1.488-.815-1.777-1.506-2.395-3.44M12.732 22.407c-.617-1.936-.907-2.626-2.394-3.441S6 18.719 6 18.719s.907 2.626 2.394 3.44 2.263.708 4.338.248" fill="#FFDECB"/><path d="m14.548 16.875-.355.352a.5.5 0 0 0 .71 0zm0-7.375.364-.343a.5.5 0 0 0-.727 0zm0 18.438.332.374a.5.5 0 0 0 0-.748zm-7.774 0-.323-.381a.5.5 0 0 0 0 .762zm6.803 5.778-.24-.438zm4.338-.247.476.152a.5.5 0 0 0-.368-.64zm-2.395 3.44.24.44zm-4.337.248-.473-.163a.5.5 0 0 0 .375.653zm3.807-20.05a.5.5 0 1 0-.885-.466zm13.136 22.357.465.186.37-.929-.464-.185zm5.326-22.589-.356.352a.5.5 0 0 0 .712 0zm0-7.375.363-.343a.5.5 0 0 0-.727 0zm1.816 12.906-.477-.152a.5.5 0 0 0 .369.64zM42 18.72l.473.163a.5.5 0 0 0-.375-.654zm-8.548 9.219-.332-.374a.5.5 0 0 0 0 .748zm7.774 0 .324.381a.5.5 0 0 0 0-.762zm-6.803 5.778.24-.438zm-4.338-.247-.108-.488a.5.5 0 0 0-.368.64zm2.395 3.44-.24.44zm4.338.248.097.49a.5.5 0 0 0 .375-.654zM33.895 16.64a.5.5 0 1 0-.885.467zM19.503 38.536l-.465.185.371.929.465-.186zm-9.165-19.57.24-.439zm2.394 3.44.109.489a.5.5 0 0 0 .368-.64zm-4.338-.246-.24.438zM6 18.719l-.098-.49a.5.5 0 0 0-.375.653zm10.492-5.531h-.5c0 .757-.112 1.217-.36 1.654-.265.466-.7.934-1.44 1.682l.356.351.356.352c.719-.728 1.255-1.29 1.597-1.89.359-.632.49-1.277.49-2.15zm-1.944 3.687.356-.351c-.739-.748-1.174-1.216-1.44-1.682-.248-.437-.36-.897-.36-1.654h-1c0 .872.132 1.517.491 2.148.342.602.879 1.163 1.598 1.89zm-1.943-3.687h.5c0-.652.405-1.465.886-2.175a11 11 0 0 1 .917-1.166l.003-.003q0-.001 0 0l-.363-.344-.364-.343-.002.002-.005.006-.085.093q-.087.097-.232.269c-.19.227-.443.55-.698.926-.49.726-1.057 1.757-1.057 2.735zM14.548 9.5l-.364.343.004.004.07.078a11 11 0 0 1 .847 1.088c.481.71.887 1.523.887 2.175h1c0-.978-.567-2.01-1.058-2.735a12 12 0 0 0-1.015-1.288l-.005-.006-.001-.001h-.001v-.001zm-3.887 16.594v.5c.808 0 1.306.108 1.777.349.496.254.991.669 1.778 1.369l.332-.374.332-.374c-.768-.683-1.357-1.19-1.987-1.512-.655-.335-1.323-.458-2.232-.458zm3.887 1.844-.332-.374c-.787.7-1.282 1.115-1.778 1.37-.47.24-.969.348-1.777.348v1c.91 0 1.578-.123 2.233-.459.629-.322 1.218-.828 1.986-1.511zm-3.887 1.844v-.5c-.711 0-1.581-.395-2.327-.85a11 11 0 0 1-1.216-.858l-.016-.014-.004-.003-.647.762.002.002.006.005a2 2 0 0 0 .099.08 12 12 0 0 0 1.256.88c.768.469 1.841.996 2.847.996zm-3.887-1.844.324.381.004-.003.016-.014.066-.054c.06-.047.146-.116.256-.198.221-.166.532-.387.894-.607.746-.454 1.616-.849 2.327-.849v-1c-1.006 0-2.08.527-2.847.995a12 12 0 0 0-1.355.96l-.006.006-.001.001H6.45zm6.803 5.778.24.439c.697-.382 1.185-.526 1.722-.54.567-.016 1.218.11 2.268.342l.108-.488.108-.488c-1.026-.227-1.8-.386-2.511-.366-.742.02-1.385.23-2.175.663zm4.338-.247-.476-.152c-.313.98-.522 1.57-.815 2.02-.276.425-.645.752-1.344 1.134l.24.439.24.438c.79-.432 1.308-.858 1.703-1.466.378-.583.623-1.306.928-2.26zm-2.395 3.44-.24-.438c-.613.336-1.575.408-2.464.368a12 12 0 0 1-1.51-.168l-.02-.004h-.006l-.098.49-.097.49h.003l.008.002.027.005a9 9 0 0 0 .46.074c.3.042.72.09 1.188.11.909.04 2.116-.011 2.99-.49zm-4.337.248.472.163.002-.005.006-.018.03-.078q.038-.105.116-.292c.103-.248.256-.585.452-.946.406-.745.947-1.493 1.556-1.826l-.24-.439-.24-.438c-.878.48-1.534 1.454-1.954 2.225a11.4 11.4 0 0 0-.672 1.487v.003h-.001zm3.364-20.283-.442-.233c-1.42 2.694-1.898 6.32-.562 10.065 1.338 3.75 4.477 7.576 10.217 10.717l.24-.44.24-.438c-5.573-3.048-8.516-6.703-9.755-10.175-1.24-3.475-.788-6.81.505-9.262zM24 36.984l-.24.438a40 40 0 0 0 4.366 2.042l.186-.464.185-.464a39 39 0 0 1-4.257-1.99zm7.508-23.796h-.5c0 .872.132 1.517.49 2.148.343.602.88 1.163 1.598 1.89l.356-.35.355-.352c-.738-.748-1.174-1.216-1.439-1.682-.248-.437-.36-.897-.36-1.654zm1.944 3.687.355.352c.72-.728 1.256-1.29 1.598-1.89.359-.632.49-1.277.49-2.15h-1c0 .758-.111 1.218-.36 1.655-.265.466-.7.934-1.439 1.682zm1.943-3.687h.5c0-.978-.566-2.01-1.057-2.735a12 12 0 0 0-1.015-1.288l-.005-.006-.002-.001v-.001l-.364.343-.364.343.004.004.014.015.057.063q.077.085.209.242c.174.21.406.504.638.846.48.71.885 1.523.885 2.175zM33.452 9.5l-.365-.342-.001.001-.005.006-.086.093c-.056.064-.136.155-.23.269-.19.227-.444.55-.699.926-.491.726-1.058 1.757-1.058 2.735h1c0-.652.406-1.465.886-2.175a11 11 0 0 1 .918-1.166l.003-.003q0-.001 0 0zm4.21 9.466-.24-.439c-.789.432-1.307.858-1.703 1.467-.378.582-.623 1.305-.928 2.26l.477.152.476.152c.313-.98.522-1.57.814-2.02.276-.425.646-.751 1.344-1.134zm-2.394 3.44-.108.489c1.025.227 1.8.385 2.51.366.742-.02 1.386-.23 2.176-.663l-.24-.439-.24-.438c-.698.382-1.185.525-1.722.54-.567.015-1.218-.11-2.268-.343zm4.338-.247.24.439c.878-.481 1.534-1.454 1.954-2.225a11.4 11.4 0 0 0 .66-1.455l.009-.025.002-.008.001-.002a104 104 0 0 0-.944-.328l-.002.005-.007.019-.029.078a10 10 0 0 1-.569 1.238c-.405.745-.947 1.492-1.556 1.826zM42 18.72l.097-.49-.003-.001-.008-.002-.027-.005a9 9 0 0 0-.459-.073c-.301-.043-.72-.09-1.189-.11-.908-.041-2.115.01-2.99.49l.241.438.24.438c.614-.336 1.576-.407 2.465-.368a12 12 0 0 1 1.509.168l.021.004.005.001zm-4.661 7.375v-.5c-.91 0-1.578.123-2.233.458-.629.323-1.218.83-1.986 1.512l.332.374.332.374c.787-.7 1.282-1.115 1.778-1.37.47-.24.969-.348 1.777-.348zm-3.887 1.844-.332.374c.768.683 1.357 1.19 1.986 1.511.655.336 1.324.459 2.233.459v-1c-.808 0-1.306-.108-1.777-.349-.496-.254-.991-.669-1.778-1.369zm3.887 1.844v.5c1.006 0 2.08-.527 2.847-.995a12 12 0 0 0 1.334-.943l.02-.018.008-.006h.001a124 124 0 0 0-.647-.763l-.004.003-.016.014-.066.054a11 11 0 0 1-1.15.805c-.746.454-1.616.849-2.327.849zm3.887-1.844.323-.381-.002-.002-.006-.005-.021-.018-.078-.063a12 12 0 0 0-1.256-.88c-.768-.468-1.841-.995-2.847-.995v1c.711 0 1.581.395 2.327.85a11 11 0 0 1 1.216.858q.011.008.016.014l.003.003h.001zm-6.803 5.778.24-.438c-.79-.433-1.433-.643-2.175-.663-.711-.02-1.485.139-2.511.366l.108.488.108.488c1.05-.232 1.701-.358 2.268-.343.537.015 1.025.159 1.722.54zm-4.338-.247-.476.152c.305.955.55 1.678.928 2.261.395.608.914 1.034 1.702 1.466l.24-.438.24-.439c-.698-.382-1.067-.709-1.343-1.134-.293-.45-.502-1.04-.815-2.02zm2.395 3.44-.24.44c.873.478 2.08.53 2.988.49a13 13 0 0 0 1.649-.184l.027-.006.008-.001h.002l-.096-.491-.098-.49h-.005l-.022.004a9 9 0 0 1-.413.066c-.28.04-.666.083-1.096.102-.889.04-1.85-.032-2.464-.368zm4.338.248.472-.164-.001-.003-.012-.033a8 8 0 0 0-.163-.416c-.113-.27-.28-.64-.497-1.038-.42-.771-1.076-1.744-1.954-2.225l-.24.438-.24.439c.609.333 1.15 1.08 1.556 1.826a10.4 10.4 0 0 1 .598 1.316l.006.019.002.004zm-3.365-20.283-.443.234c1.293 2.452 1.745 5.787.505 9.262-1.239 3.472-4.182 7.127-9.755 10.175l.24.439.24.438c5.74-3.14 8.88-6.966 10.217-10.716 1.336-3.745.858-7.37-.562-10.065zM24 36.984l-.24-.439a39 39 0 0 1-4.257 1.99l.185.465.186.464a40 40 0 0 0 4.366-2.041zM10.338 18.966l-.24.438c.698.383 1.068.71 1.344 1.134.292.45.501 1.04.814 2.02l.476-.151.477-.152c-.305-.956-.55-1.679-.928-2.261-.396-.608-.914-1.035-1.703-1.467zm2.394 3.44-.108-.488c-1.05.233-1.7.359-2.267.343-.537-.014-1.025-.158-1.722-.54l-.24.439-.24.438c.79.433 1.433.643 2.174.663.712.02 1.486-.139 2.512-.366zm-4.338-.246.24-.439c-.608-.334-1.15-1.08-1.555-1.826a10.4 10.4 0 0 1-.605-1.335l-.001-.004-.473.163-.473.163v.002l.002.002.011.032a7 7 0 0 0 .164.417c.113.27.28.64.496 1.038.42.771 1.076 1.744 1.954 2.225zM6 18.719l.098.49h.005l.021-.005.086-.015a12 12 0 0 1 1.423-.152c.89-.04 1.851.031 2.465.367l.24-.438.24-.439c-.874-.478-2.08-.53-2.99-.49a13 13 0 0 0-1.647.184l-.027.005-.008.002h-.003z" fill="#362929"/><path d="M23.143 17.424a1 1 0 0 1 1.714 0l1.229 2.042a1 1 0 0 0 .63.458l2.323.538a1 1 0 0 1 .53 1.63l-1.563 1.8a1 1 0 0 0-.241.741l.206 2.375a1 1 0 0 1-1.387 1.007l-2.194-.93a1 1 0 0 0-.78 0l-2.194.93a1 1 0 0 1-1.387-1.007l.206-2.375a1 1 0 0 0-.24-.742l-1.563-1.8a1 1 0 0 1 .53-1.629l2.321-.538a1 1 0 0 0 .631-.458z" fill="#FFA284" stroke="#362929"/></svg>