<svg width="25" height="24" viewBox="0 0 25 24" fill="none" xmlns="http://www.w3.org/2000/svg">
<path fill-rule="evenodd" clip-rule="evenodd" d="M7.55706 1.95673C7.91604 1.95673 8.20706 2.24774 8.20706 2.60673V3.3349H17.0418V2.60673C17.0418 2.24774 17.3328 1.95673 17.6918 1.95673C18.0508 1.95673 18.3418 2.24774 18.3418 2.60673V3.3349H20.6246C21.812 3.3349 22.7746 4.29749 22.7746 5.4849V20C22.7746 21.1875 21.812 22.15 20.6246 22.15H4.62461C3.4372 22.15 2.47461 21.1874 2.47461 20V5.4849C2.47461 4.29749 3.4372 3.3349 4.62461 3.3349H6.90706V2.60673C6.90706 2.24774 7.19807 1.95673 7.55706 1.95673ZM4.62461 4.6349C4.15517 4.6349 3.77461 5.01546 3.77461 5.4849V6.8349H21.4746V5.4849C21.4746 5.01546 21.0941 4.6349 20.6246 4.6349H4.62461ZM21.4746 8.1349H3.77461V20C3.77461 20.4695 4.15517 20.85 4.62461 20.85H20.6246C21.0941 20.85 21.4746 20.4695 21.4746 20V8.1349ZM9.47461 14.4925C9.47461 14.1335 9.76562 13.8425 10.1246 13.8425H15.1246C15.4836 13.8425 15.7746 14.1335 15.7746 14.4925C15.7746 14.8515 15.4836 15.1425 15.1246 15.1425H10.1246C9.76562 15.1425 9.47461 14.8515 9.47461 14.4925Z" fill="#222222"/>
</svg>
