<svg width="48" height="48" viewBox="0 0 48 48" fill="none" xmlns="http://www.w3.org/2000/svg"><path fill="#fff" d="M0 0h48v48H0z"/><mask id="a" style="mask-type:alpha" maskUnits="userSpaceOnUse" x="11" y="25" width="25" height="16"><path d="m16.721 25.878 7.25 3.38-5.07 10.877-2.78-3.503-4.471.122z" fill="#FFA284"/><path d="m23.65 29.265 7.25-3.38 5.072 10.875-4.47-.122-2.78 3.503z" fill="#FFA284"/></mask><g mask="url(#a)"><path d="m16.721 25.878 7.25 3.38-5.07 10.877-2.78-3.503-4.471.122z" fill="#FFA284"/><path d="m23.65 29.265 7.25-3.38 5.072 10.875-4.47-.122-2.78 3.503z" fill="#FFA284"/><circle cx="24" cy="21" r="12" fill="#FF8D69"/></g><path d="m16.922 25.878 7.25 3.38-5.071 10.877-2.78-3.503-4.47.122z" stroke="#362929" stroke-linejoin="round"/><path d="m23.85 29.265 7.25-3.38 5.072 10.875-4.47-.122-2.78 3.503z" stroke="#362929" stroke-linejoin="round"/><circle cx="24" cy="19" r="12" fill="#fff"/><circle cx="24" cy="19" r="12" fill="#fff"/><path d="M24 6.5c6.904 0 12.5 5.596 12.5 12.5S30.904 31.5 24 31.5 11.5 25.904 11.5 19 17.096 6.5 24 6.5m0 1c-6.351 0-11.5 5.149-11.5 11.5S17.649 30.5 24 30.5 35.5 25.351 35.5 19 30.351 7.5 24 7.5" fill="#362929"/><circle cx="24" cy="19" r="9" fill="#fff"/><circle cx="24" cy="19" r="9" fill="#FFDECB"/><circle cx="24" cy="19" r="9" fill="#FFDECB"/><path d="M24 10a8.98 8.98 0 0 1 6.843 3.156 9 9 0 0 0-12.687 12.687A9 9 0 0 1 24 10" fill="#fff"/><path d="M24 10a8.98 8.98 0 0 1 6.843 3.156 9 9 0 0 0-12.687 12.687A9 9 0 0 1 24 10" fill="#FFDECB"/><path d="M24 10a8.98 8.98 0 0 1 6.843 3.156 9 9 0 0 0-12.687 12.687A9 9 0 0 1 24 10" fill="#FF8D69"/><path d="M24.143 14.424a1 1 0 0 1 1.714 0l1.229 2.042a1 1 0 0 0 .63.458l2.323.538a1 1 0 0 1 .53 1.63l-1.563 1.8a1 1 0 0 0-.241.741l.206 2.375a1 1 0 0 1-1.387 1.007l-2.194-.93a1 1 0 0 0-.78 0l-2.194.93a1 1 0 0 1-1.387-1.007l.206-2.375a1 1 0 0 0-.24-.742l-1.563-1.8a1 1 0 0 1 .53-1.629l2.321-.538a1 1 0 0 0 .631-.458z" fill="#FFA284"/><path d="M23.143 13.424a1 1 0 0 1 1.714 0l1.229 2.042a1 1 0 0 0 .63.458l2.323.538a1 1 0 0 1 .53 1.63l-1.563 1.8a1 1 0 0 0-.241.741l.206 2.375a1 1 0 0 1-1.387 1.007l-2.194-.93a1 1 0 0 0-.78 0l-2.194.93a1 1 0 0 1-1.387-1.007l.206-2.375a1 1 0 0 0-.24-.742l-1.563-1.8a1 1 0 0 1 .53-1.629l2.321-.538a1 1 0 0 0 .631-.458z" fill="#fff" stroke="#362929"/><path d="M29.04 16.462a1 1 0 0 1 .528 1.63l-1.562 1.8a1 1 0 0 0-.241.741l.206 2.374a1 1 0 0 1-1.386 1.008l-2.194-.93a1 1 0 0 0-.78 0l-2.195.93a1 1 0 0 1-1.389-.92 1 1 0 0 0 .389-.08l2.194-.93a1 1 0 0 1 .78 0l2.195.93a1 1 0 0 0 1.386-1.008l-.206-2.374a1 1 0 0 1 .24-.742l1.563-1.8a1 1 0 0 0 .243-.682zm-4.862-3.505c.268.047.52.202.68.466l.909 1.513-.05-.012a1 1 0 0 1-.631-.458z" fill="#FFDECB"/><path d="M23.143 13.424a1 1 0 0 1 1.714 0l1.229 2.042a1 1 0 0 0 .63.458l2.323.538a1 1 0 0 1 .53 1.63l-1.563 1.8a1 1 0 0 0-.241.741l.206 2.375a1 1 0 0 1-1.387 1.007l-2.194-.93a1 1 0 0 0-.78 0l-2.194.93a1 1 0 0 1-1.387-1.007l.206-2.375a1 1 0 0 0-.24-.742l-1.563-1.8a1 1 0 0 1 .53-1.629l2.321-.538a1 1 0 0 0 .631-.458z" stroke="#362929"/></svg>